<?xml version="1.0" encoding="UTF-8" standalone="no"?><!DOCTYPE svg PUBLIC "-//W3C//DTD SVG 1.1//EN" "http://www.w3.org/Graphics/SVG/1.1/DTD/svg11.dtd"><svg width="100%" height="100%" viewBox="0 0 10667 6000" version="1.1" xmlns="http://www.w3.org/2000/svg" xmlns:xlink="http://www.w3.org/1999/xlink" xml:space="preserve" xmlns:serif="http://www.serif.com/" style="fill-rule:evenodd;clip-rule:evenodd;stroke-linejoin:round;stroke-miterlimit:2;"><g id="Workkit"><path id="W" d="M919.423,4336.36l269.244,-0l319.644,-706.619l312.358,706.745l276.423,-1.346l879.041,-1973.57l-268.347,-0.448l-746.052,1674.96l-318.353,-716.94l432.817,-958.18l-269.693,-0.448l-744.796,1674.96l-739.734,-1673.9l-276.424,0l873.872,1974.79Z" style="fill:#02023e;"/><path id="Maleta" d="M4348.96,3226.85l0,501.504c0,38.262 -31.064,69.326 -69.326,69.326l-1087.27,0c-38.262,0 -69.326,-31.064 -69.326,-69.326l0,-496.469c150.295,77.475 299.689,127.888 448.076,149.979l0,74.066c0,21.302 17.295,38.597 38.597,38.597l257.015,-0c21.302,-0 38.597,-17.295 38.597,-38.597l-0,-72.903c148.91,-21.596 296.797,-73.22 443.639,-156.177Zm-496.876,92.395c-0,-18.34 -14.889,-33.229 -33.229,-33.229l-167.193,0c-18.339,0 -33.228,14.889 -33.228,33.229l-0,91.774c-0,18.339 14.889,33.229 33.228,33.229l167.193,-0c18.34,-0 33.229,-14.89 33.229,-33.229l-0,-91.774Zm-406.67,-388.141l0,-96.121c0,-44.074 35.782,-79.856 79.855,-79.856l409.628,0c44.073,0 79.855,35.782 79.855,79.856l-0,96.121l264.882,0c38.262,0 69.326,31.064 69.326,69.327l0,162.92c-149.286,82.945 -297.177,136.39 -443.639,160.424l-0,-47.963c-0,-21.302 -17.295,-38.596 -38.597,-38.596l-257.015,-0c-21.302,-0 -38.597,17.294 -38.597,38.596l0,51.478c-150.857,-21.902 -300.226,-75.879 -448.076,-161.813l0,-165.046c0,-38.263 31.064,-69.327 69.326,-69.327l253.052,0Zm513.782,0l0,-62.517c0,-27.825 -22.59,-50.415 -50.415,-50.415l-356.136,-0c-27.825,-0 -50.415,22.59 -50.415,50.415l-0,62.517l456.966,0Z" style="fill:#02023e;"/><path id="O" d="M3999,2380.1c137.125,38.495 262.407,105.622 369.019,194.537l76.801,-55.687l327.868,452.177l-91.415,66.284c31.713,97.865 48.87,202.387 48.87,310.901c0,554.778 -448.45,1005.19 -1000.82,1005.19c-552.366,-0 -1000.82,-450.41 -1000.82,-1005.19c0,-453.919 300.216,-837.969 711.954,-962.614l0,-105.704l558.536,-0l-0,100.106Zm-269.673,194.218c425.321,-0 770.629,346.815 770.629,773.994c-0,427.179 -345.308,773.995 -770.629,773.995c-425.322,-0 -770.629,-346.816 -770.629,-773.995c0,-427.179 345.307,-773.994 770.629,-773.994Z" style="fill:#02023e;"/><path id="R" d="M5165.36,2738.42c183.172,-296.45 456.914,-378.029 731.31,-377.53l-0.06,266.911c-383.587,-9.867 -600.223,138.04 -731.25,572.526l-0,1133.72l-264.997,0l0,-1969.33l264.997,-0l-0,373.703Z" style="fill:#02023e;"/><path id="K" d="M6277.12,3442l1178.55,-1074.35l322.835,-3.231l-851.251,795.671l933.851,1173.89l-322.459,-2.283l-799.959,-995.355l-461.57,431.433l0,568.492l-264.996,0l-0,-2783.99l264.996,0l0,1889.72Z" style="fill:#02023e;"/><path id="K1" serif:id="K" d="M7332.74,3442l1178.55,-1074.35l322.835,-3.231l-851.25,795.671l933.851,1173.89l-322.459,-2.283l-799.959,-995.355l-461.57,431.433l-0,568.492l-264.996,0l-0,-2783.99l264.996,0l-0,1889.72Z" style="fill:#02023e;"/><path id="I" d="M9187.58,2364.72l-264.996,-0l-0,1969.33l264.996,0l-0,-1969.33Zm-127.948,-811.539c106.657,0 193.248,83.177 193.248,185.628c-0,102.45 -86.591,185.627 -193.248,185.627c-106.656,0 -193.247,-83.177 -193.247,-185.627c-0,-102.451 86.591,-185.628 193.247,-185.628Z" style="fill:#02023e;"/><path id="T" d="M9875.98,2364.98l599.176,0l-0,264.996l-599.176,0l0,1224.66l0,0c40.845,305.123 413.169,323.422 632.74,172.285l91.253,187.334c-224.704,205.347 -942.816,249.031 -988.989,-359.608l0,-1224.67l-356.721,0l0,-264.996l356.721,0l0,-430.299l264.996,0l0,430.299Z" style="fill:#02023e;"/></g></svg>